<svg width="47" height="40" viewBox="0 0 47 40" fill="none" xmlns="http://www.w3.org/2000/svg">
<path d="M6.81315 24.6615L7.002 28.1366C7.01435 28.3733 7.10219 28.596 7.25039 28.7785C8.28638 30.0454 12.9311 34.4657 23.3979 34.4657C33.8647 34.4657 38.4532 30.1024 39.5276 28.8021C39.6895 28.6058 39.7828 28.3622 39.7979 28.106L39.9852 24.6638C41.2312 23.9732 42.5176 23.1928 42.5176 23.1928C44.5402 22.086 46.7974 23.6759 46.8015 26.0079C46.8084 29.7809 43.8898 33.6582 39.953 36.1016C35.5141 38.8567 28.888 39.9998 23.4008 39.9998C17.9135 39.9998 11.2874 38.8567 6.84846 36.1016C2.91173 33.6582 -0.00684865 29.7822 1.20704e-05 26.0079C0.00412854 23.6759 2.26133 22.086 4.28388 23.1928C4.28388 23.1928 5.56806 23.9713 6.81315 24.6615Z" fill="white"/>
<path d="M23.3996 0C31.9577 0 34.2781 0.201871 37.7578 0.605618H37.7564C39.3605 0.792174 40.6462 1.99784 40.5268 3.63092L39.245 21.2682C38.8439 21.3855 38.4065 21.5338 37.916 21.7001C35.345 22.5717 31.3145 23.9379 23.3995 23.9379C15.4845 23.9379 11.4541 22.5717 8.88305 21.7001C8.39203 21.5336 7.95419 21.3852 7.55273 21.2678L6.27097 3.63092C6.15298 1.99784 7.43456 0.762936 9.04134 0.605618C12.4786 0.268698 16.0572 0 23.3996 0ZM8.16691 29.719L8.17142 29.781L8.25985 29.8016C8.22822 29.7738 8.19724 29.7463 8.16691 29.719ZM38.5467 29.7996L38.6264 29.781L38.6305 29.7246C38.6031 29.7494 38.5751 29.7743 38.5467 29.7996Z" fill="white"/>
</svg>
