<svg width="50" height="40" viewBox="0 0 50 40" fill="none" xmlns="http://www.w3.org/2000/svg">
<path d="M49.476 1.64231C49.4524 1.23456 49.2812 0.849742 48.9949 0.560925C48.7087 0.272108 48.3273 0.099398 47.9231 0.0755858C37.2345 -0.549438 28.6523 2.72985 24.9641 8.87175C22.5274 12.9323 22.5315 17.8638 24.9311 22.5681C23.5653 24.2085 22.5671 26.1274 22.0049 28.1933L18.6451 24.7911C20.26 21.3889 20.198 17.8429 18.4386 14.897C15.7128 10.3572 9.42065 7.9238 1.60864 8.38631C1.20449 8.41013 0.823067 8.58284 0.536798 8.87165C0.25053 9.16047 0.079344 9.54529 0.0557419 9.95304C-0.404759 17.8346 2.00926 24.1827 6.50896 26.9328C7.99385 27.8481 9.70015 28.3326 11.4402 28.3329C13.1292 28.3119 14.7919 27.9082 16.3055 27.1516L21.468 32.3601V38.3333C21.468 38.7753 21.6421 39.1993 21.9519 39.5118C22.2617 39.8244 22.6819 40 23.12 40C23.5582 40 23.9784 39.8244 24.2882 39.5118C24.598 39.1993 24.7721 38.7753 24.7721 38.3333V32.1893C24.7647 29.5377 25.6591 26.9639 27.3059 24.8974C29.4307 26.0177 31.7872 26.6172 34.1845 26.6474C36.5022 26.655 38.7769 26.0161 40.7575 24.8015C46.8452 21.0847 50.1038 12.426 49.476 1.64231ZM8.21261 24.0827C5.04485 22.1472 3.25241 17.5658 3.29577 11.6656C9.14393 11.6156 13.6849 13.4303 15.6033 16.6262C16.6049 18.2929 16.768 20.2368 16.1113 22.2389L11.0706 17.1533C10.7583 16.8539 10.3424 16.6895 9.91159 16.6951C9.4808 16.7006 9.06922 16.8757 8.76458 17.1831C8.45995 17.4904 8.28637 17.9057 8.28085 18.3403C8.27534 18.7749 8.43832 19.1945 8.73506 19.5096L13.7758 24.5953C11.7913 25.2578 9.86669 25.0932 8.21261 24.0827ZM39.0455 21.9535C36.2784 23.6431 33.026 23.7723 29.7219 22.3702L40.8091 11.1823C41.1058 10.8671 41.2688 10.4475 41.2633 10.0129C41.2578 9.5783 41.0842 9.16305 40.7796 8.8557C40.4749 8.54835 40.0633 8.37323 39.6325 8.36767C39.2018 8.3621 38.7859 8.52654 38.4735 8.82591L27.3843 19.9993C25.9884 16.6658 26.1143 13.3823 27.7973 10.5926C30.676 5.8008 37.503 3.12987 46.2442 3.33613C46.4425 12.1531 43.7992 19.0492 39.0455 21.9535Z" fill="white"/>
</svg>
